# This file uses centimeters as units for non-parametric coordinates.

v 0.151986 0.372008 -0.788155
v 0.632473 0.865744 -1.648399
v 0.632473 0.897411 -1.648399
v 0.158976 0.415810 -0.800669
v 0.151134 0.371594 -0.789072
v 0.133883 0.368252 -0.834196
v 1.419716 0.979720 -2.653650
v 1.419716 1.011387 -2.653650
v 0.133883 0.404948 -0.834196
v 0.138103 0.405766 -0.823158
v 0.629702 0.865744 -1.672584
v 0.629702 0.897411 -1.672584
v 1.416945 1.011387 -2.677835
v 1.416945 0.979720 -2.677835
v 0.000000 0.306603 1.705267
v 0.120530 0.317102 1.619293
v 0.241059 0.340214 1.533320
v 0.241059 0.364086 1.533320
v 0.000000 0.123265 1.044095
v 0.000000 0.504949 1.044095
v 0.188716 0.309878 1.044096
v 0.377431 0.310670 1.044096
v 0.377431 0.375715 1.044096
v 0.000000 0.123265 0.371615
v 0.000000 0.539826 0.371615
v 0.494613 0.285569 0.334873
v 0.494613 0.300304 0.334873
v 0.000000 0.123265 -0.184485
v 0.000000 0.513922 -0.184485
v 0.247307 0.302186 0.353244
v 0.365187 0.304207 -0.276284
v 0.365187 0.328606 -0.276284
v 0.296070 0.307132 -0.223832
v 0.409228 0.308090 -0.323060
v 0.409228 0.359321 -0.323060
v 0.000000 0.130597 -0.698610
v 0.000000 0.472497 -0.698610
v 0.284482 0.192823 -0.687105
v 0.284482 0.429814 -0.687105
v 0.221783 0.189912 -0.710425
v 0.221783 0.400498 -0.710425
v 0.000000 0.215238 -0.880517
v 0.000000 0.461198 -0.880517
v 0.069691 0.249894 -0.835928
v 0.135004 0.423303 -0.835928
v 0.143886 0.183914 -0.484134
v 0.147228 0.183914 -0.404741
v 0.200491 0.214486 -0.484496
v 0.191934 0.227078 -0.418448
v 0.172448 0.188267 0.085158
v 0.187253 0.221951 0.084059
v 0.186831 0.222247 0.023234
v 0.169107 0.188267 0.026374
v 0.103306 0.175726 0.802643
v 0.141190 0.236161 0.802643
v 0.156455 0.234616 0.584445
v 0.106809 0.175726 0.588133
v -0.151986 0.372008 -0.788155
v -0.632473 0.865744 -1.648399
v -0.632473 0.897411 -1.648399
v -0.158976 0.415810 -0.800669
v -0.151134 0.371594 -0.789072
v -0.133883 0.368252 -0.834196
v -0.629702 0.865744 -1.672584
v -1.419716 0.979720 -2.653650
v -1.419716 1.011387 -2.653650
v -0.133883 0.404948 -0.834196
v -0.138103 0.405766 -0.823158
v -0.629702 0.897411 -1.672584
v -1.416945 1.011387 -2.677835
v -1.416945 0.979720 -2.677835
v -0.120530 0.317102 1.619293
v -0.241059 0.340214 1.533320
v -0.241059 0.364086 1.533320
v -0.188716 0.309878 1.044096
v -0.377431 0.310670 1.044096
v -0.377431 0.375715 1.044096
v -0.494613 0.285569 0.334873
v -0.494613 0.300304 0.334873
v -0.247307 0.302186 0.353244
v -0.365187 0.304207 -0.276284
v -0.365187 0.328606 -0.276284
v -0.296070 0.307132 -0.223832
v -0.409228 0.308090 -0.323060
v -0.409228 0.359321 -0.323060
v -0.284482 0.192823 -0.687105
v -0.284482 0.429814 -0.687105
v -0.221783 0.189912 -0.710425
v -0.221783 0.400498 -0.710425
v -0.069691 0.249894 -0.835928
v -0.135004 0.423303 -0.835928
v -0.143886 0.183914 -0.484134
v -0.147228 0.183914 -0.404741
v -0.200490 0.214486 -0.484496
v -0.191934 0.227078 -0.418448
v -0.172448 0.188267 0.085158
v -0.187253 0.221951 0.084059
v -0.186831 0.222247 0.023234
v -0.169107 0.188267 0.026374
v -0.103306 0.175726 0.802643
v -0.141190 0.236161 0.802643
v -0.156455 0.234616 0.584445
v -0.106809 0.175726 0.588133
vt 0.507619 0.330779
vt 0.593526 0.181102
vt 0.515240 0.328602
vt 0.599036 0.181102
vt 0.593526 0.176894
vt 0.506966 0.322768
vt 0.507547 0.330619
vt 0.613357 0.006195
vt 0.618867 0.006195
vt 0.955694 0.155712
vt 0.870009 0.009838
vt 0.955694 0.151504
vt 0.871899 0.004004
vt 0.870151 0.007917
vt 0.863624 0.009838
vt 0.864205 0.001986
vt 0.224849 0.712697
vt 0.361825 0.887604
vt 0.224367 0.716905
vt 0.361343 0.891812
vt 0.513294 0.892189
vt 0.512812 0.887981
vt 0.650270 0.717282
vt 0.649788 0.713074
vt 0.613357 0.001986
vt 0.618867 0.001986
vt 0.950184 0.155712
vt 0.970016 0.330619
vt 0.975525 0.330619
vt 0.478039 0.418245
vt 0.479865 0.403286
vt 0.488040 0.388327
vt 0.483887 0.388327
vt 0.137883 0.492424
vt 0.137883 0.377384
vt 0.158854 0.477465
vt 0.170718 0.377384
vt 0.179825 0.462506
vt 0.203553 0.377384
vt 0.478746 0.303205
vt 0.490064 0.303205
vt 0.316274 0.001986
vt 0.358217 0.031904
vt 0.316274 0.117026
vt 0.381945 0.117026
vt 0.476943 0.179804
vt 0.474379 0.179804
vt 0.316274 0.234034
vt 0.402334 0.240427
vt 0.180912 0.257180
vt 0.223942 0.253983
vt 0.477622 0.073467
vt 0.481867 0.073467
vt 0.316274 0.330792
vt 0.379814 0.346764
vt 0.189397 0.156772
vt 0.201423 0.147646
vt 0.478297 0.065328
vt 0.487211 0.065328
vt 0.209086 0.139507
vt 0.137883 0.163618
vt 0.387477 0.354903
vt 0.499477 0.001986
vt 0.458242 0.001986
vt 0.316274 0.420246
vt 0.365772 0.418245
vt 0.627800 0.896180
vt 0.669035 0.896180
vt 0.632901 0.907089
vt 0.669541 0.907089
vt 0.137883 0.074164
vt 0.176471 0.072108
vt 0.187381 0.076165
vt 0.620373 0.945678
vt 0.628933 0.922188
vt 0.630237 0.918018
vt 0.637858 0.919234
vt 0.659105 0.933553
vt 0.637930 0.919382
vt 0.665135 0.945678
vt 0.622339 0.945678
vt 0.137883 0.042513
vt 0.150008 0.050271
vt 0.614238 0.934769
vt 0.582587 0.934769
vt 0.606480 0.911279
vt 0.584643 0.896180
vt 0.631984 0.921649
vt 0.163499 0.125295
vt 0.162918 0.111481
vt 0.172767 0.111418
vt 0.171278 0.122910
vt 0.170463 0.210343
vt 0.167887 0.210535
vt 0.137883 0.260376
vt 0.167306 0.200307
vt 0.170390 0.199760
vt 0.155857 0.335373
vt 0.162449 0.335373
vt 0.156467 0.298049
vt 0.165105 0.297408
vt 0.626505 0.001986
vt 0.634126 0.004164
vt 0.712412 0.151664
vt 0.717922 0.151664
vt 0.712412 0.155872
vt 0.625851 0.009997
vt 0.626433 0.002146
vt 0.737753 0.326571
vt 0.732243 0.326571
vt 0.836808 0.176894
vt 0.836808 0.181102
vt 0.751123 0.322768
vt 0.753013 0.328602
vt 0.751265 0.324688
vt 0.745319 0.330619
vt 0.744738 0.322768
vt 0.369072 0.892189
vt 0.368590 0.887981
vt 0.506048 0.717282
vt 0.505565 0.713074
vt 0.794010 0.822087
vt 0.657035 0.647180
vt 0.794492 0.817879
vt 0.657517 0.642972
vt 0.732243 0.330779
vt 0.737753 0.330779
vt 0.831298 0.176894
vt 0.851129 0.001986
vt 0.856639 0.001986
vt 0.429315 0.001986
vt 0.439317 0.031904
vt 0.431142 0.016945
vt 0.435163 0.031904
vt 0.105047 0.377384
vt 0.116911 0.477465
vt 0.072212 0.377384
vt 0.095940 0.462506
vt 0.441340 0.117026
vt 0.430022 0.117026
vt 0.250603 0.117026
vt 0.274331 0.031904
vt 0.428219 0.240427
vt 0.425655 0.240427
vt 0.230214 0.240427
vt 0.051823 0.253983
vt 0.094853 0.257180
vt 0.433143 0.346764
vt 0.428898 0.346764
vt 0.252734 0.346764
vt 0.074342 0.147646
vt 0.086368 0.156772
vt 0.438488 0.354903
vt 0.429574 0.354903
vt 0.066679 0.139507
vt 0.245071 0.354903
vt 0.450753 0.418245
vt 0.409518 0.418245
vt 0.266776 0.418245
vt 0.627800 0.995177
vt 0.632901 0.984267
vt 0.669035 0.995177
vt 0.669541 0.984267
vt 0.088384 0.076165
vt 0.099294 0.072108
vt 0.628933 0.969168
vt 0.630237 0.973339
vt 0.637858 0.972123
vt 0.659105 0.957804
vt 0.637930 0.971975
vt 0.125757 0.050271
vt 0.584643 0.973358
vt 0.606480 0.958259
vt 0.631984 0.969707
vt 0.112266 0.125295
vt 0.112847 0.111481
vt 0.419429 0.896180
vt 0.456747 0.921216
vt 0.421431 0.945678
vt 0.456683 0.931064
vt 0.484772 0.967383
vt 0.468176 0.929576
vt 0.104487 0.122910
vt 0.105302 0.210343
vt 0.107878 0.210535
vt 0.108459 0.200307
vt 0.105375 0.199760
vt 0.113316 0.335373
vt 0.119908 0.335373
vt 0.119298 0.298049
vt 0.110660 0.297408
vn 0.873045 0.000001 0.487639
vn 0.833667 0.000000 0.552267
vn 0.873045 0.000001 0.487639
vn 0.818412 0.000000 0.574632
vn 0.641696 -0.763428 -0.073515
vn 0.638847 -0.765517 -0.076536
vn 0.560740 -0.813593 -0.153741
vn 0.560470 -0.813731 -0.153997
vn 0.560471 -0.813732 -0.153992
vn 0.787306 0.000000 0.616563
vn 0.787306 0.000000 0.616563
vn -0.637893 0.766650 0.073079
vn -0.558229 0.815731 0.151535
vn -0.635977 0.768046 0.075096
vn -0.557157 0.816278 0.152535
vn -0.557156 0.816279 0.152535
vn -0.934070 0.000000 0.357090
vn -0.934070 0.000001 0.357090
vn -0.934070 0.000001 0.357090
vn -0.934070 0.000001 0.357090
vn -0.125291 0.992016 0.014355
vn -0.125294 0.992016 0.014354
vn -0.125291 0.992016 0.014355
vn -0.125294 0.992016 0.014354
vn 0.125290 -0.992016 -0.014354
vn 0.125290 -0.992016 -0.014354
vn 0.125294 -0.992016 -0.014353
vn 0.125294 -0.992016 -0.014353
vn 0.993502 0.000000 -0.113814
vn 0.993502 0.000000 -0.113815
vn 0.993502 0.000000 -0.113815
vn 0.993502 0.000000 -0.113817
vn -0.813546 0.000000 -0.581501
vn -0.826747 0.000000 -0.562574
vn -0.860743 0.000000 -0.509039
vn -0.860743 0.000000 -0.509039
vn -0.787306 0.000000 -0.616562
vn -0.787306 0.000000 -0.616562
vn 0.580707 -0.000004 0.814113
vn 0.580707 -0.000004 0.814113
vn 0.580705 -0.000001 0.814114
vn 0.580705 0.000000 0.814114
vn 0.264740 -0.929256 0.257676
vn 0.669628 -0.734899 0.107338
vn 0.367540 -0.912025 0.182003
vn 0.309743 -0.948902 0.060364
vn 0.171317 -0.984290 0.042704
vn -0.007495 -0.999512 0.030309
vn 0.978612 0.000000 0.205715
vn 0.978154 0.000000 0.207884
vn 0.963276 0.000000 0.268515
vn 0.963276 0.000000 0.268515
vn -0.023438 0.957566 0.287261
vn 0.093795 0.968059 0.232517
vn 0.289407 0.952668 0.093100
vn 0.362701 0.930880 0.043718
vn 0.999966 0.000003 0.008255
vn 0.999954 0.000003 -0.009583
vn 0.418672 0.907876 -0.021789
vn 0.435163 0.899718 -0.033772
vn -0.061407 -0.998083 0.007662
vn -0.066344 -0.997773 0.006869
vn 0.991185 0.000000 -0.132484
vn 0.997721 0.000000 -0.067469
vn 0.401118 0.914447 -0.053765
vn 0.460707 0.886503 0.043153
vn 0.074701 -0.984321 0.159787
vn 0.226918 -0.945625 0.233027
vn 0.961362 -0.000000 -0.275289
vn 0.971319 0.000000 -0.237778
vn 0.485667 -0.781103 0.392436
vn 0.475344 -0.670176 0.570011
vn 0.318767 0.947490 0.025513
vn 0.905001 -0.000000 -0.425409
vn 0.893223 -0.000000 -0.449614
vn 0.283143 0.958663 -0.028204
vn 0.143391 0.984058 0.105211
vn 0.564139 -0.010030 -0.825619
vn 0.546023 -0.043026 -0.836665
vn 0.252248 -0.791536 -0.556635
vn 0.189380 -0.816687 -0.545122
vn 0.208080 -0.867877 -0.451101
vn 0.239677 0.822847 -0.515246
vn 0.762648 -0.287248 -0.579531
vn 0.762649 -0.287248 -0.579530
vn 0.752804 -0.055624 -0.655890
vn 0.619957 -0.116115 -0.775997
vn 0.658388 -0.155342 -0.736474
vn 0.538940 -0.000000 -0.842344
vn 0.345037 -0.083477 -0.934870
vn 0.449353 -0.040121 -0.892453
vn 0.284556 -0.107176 -0.952650
vn 0.584725 -0.735510 -0.342232
vn 0.327341 -0.789252 -0.519546
vn 0.287901 0.955818 -0.059372
vn 0.299382 0.952972 -0.047064
vn 0.762648 -0.287249 -0.579531
vn 0.363802 -0.931382 -0.013281
vn 0.363941 -0.931326 -0.013361
vn 0.363919 -0.931335 -0.013348
vn 0.367620 -0.929847 -0.015473
vn 0.208642 -0.972676 0.101829
vn 0.222283 -0.968590 0.111457
vn 0.249692 -0.959444 0.130844
vn 0.457603 -0.843942 0.279931
vn 0.261008 -0.942448 0.208965
vn 0.260684 -0.942445 0.209383
vn 0.260596 -0.942444 0.209496
vn 0.257815 -0.942408 0.213071
vn 0.420141 -0.906926 0.031112
vn 0.426250 -0.904571 0.007936
vn 0.425102 -0.905061 0.012362
vn 0.491921 -0.681541 -0.541771
vn 0.911306 -0.403253 -0.083111
vn 0.590497 -0.788861 0.170329
vn 0.635433 -0.758447 0.144856
vn 0.585727 -0.791845 0.172928
vn 0.352709 -0.935733 -0.000000
vn 0.353233 -0.935535 -0.000383
vn 0.353493 -0.935437 -0.000573
vn 0.382190 -0.923828 -0.021725
vn 0.520540 -0.851553 -0.062416
vn 0.549714 -0.829443 -0.099193
vn 0.525891 -0.847745 -0.069044
vn 0.761573 -0.441112 -0.474791
vn 0.704992 -0.707193 0.053511
vn 0.702909 -0.709363 0.052174
vn 0.702096 -0.710206 0.051654
vn 0.602128 -0.798359 -0.008066
vn 0.695723 -0.703563 0.144804
vn 0.732065 -0.671596 0.114188
vn 0.706019 -0.694939 0.136371
vn 0.847281 -0.531125 -0.004615
vn 0.452779 -0.891623 -0.000000
vn 0.447302 -0.894382 0.001649
vn 0.451920 -0.892058 0.000259
vn 0.429358 -0.903107 0.007011
vn 0.585821 -0.810413 -0.006646
vn 0.615203 -0.787337 -0.040318
vn 0.597853 -0.801351 -0.020232
vn 0.740815 -0.637731 -0.210930
vn 0.720615 -0.689914 0.068797
vn 0.719500 -0.691120 0.068356
vn 0.711523 -0.699630 0.065222
vn 0.678783 -0.732448 0.052670
vn -0.873045 0.000002 0.487640
vn -0.873045 0.000002 0.487640
vn -0.833667 0.000000 0.552268
vn -0.818412 0.000000 0.574632
vn -0.641696 -0.763427 -0.073515
vn -0.560740 -0.813593 -0.153741
vn -0.638847 -0.765517 -0.076537
vn -0.560505 -0.813708 -0.153994
vn -0.560473 -0.813730 -0.153991
vn -0.787306 0.000000 0.616563
vn -0.787306 0.000000 0.616563
vn 0.637892 0.766650 0.073080
vn 0.635976 0.768046 0.075097
vn 0.558229 0.815731 0.151533
vn 0.557158 0.816277 0.152535
vn 0.557157 0.816278 0.152534
vn 0.934070 0.000001 0.357089
vn 0.934070 0.000001 0.357090
vn 0.934070 0.000001 0.357090
vn 0.934070 0.000000 0.357090
vn 0.125294 0.992016 0.014354
vn 0.125294 0.992016 0.014354
vn 0.125291 0.992016 0.014355
vn 0.125291 0.992016 0.014355
vn -0.125291 -0.992016 -0.014355
vn -0.125294 -0.992016 -0.014354
vn -0.125291 -0.992016 -0.014355
vn -0.125294 -0.992016 -0.014354
vn -0.993502 0.000000 -0.113814
vn -0.993502 0.000000 -0.113815
vn -0.993502 0.000000 -0.113815
vn -0.993502 0.000000 -0.113817
vn 0.860743 0.000000 -0.509039
vn 0.826747 0.000000 -0.562574
vn 0.860743 0.000000 -0.509039
vn 0.813546 0.000000 -0.581501
vn 0.787306 0.000000 -0.616562
vn 0.787306 0.000000 -0.616562
vn -0.580706 -0.000003 0.814113
vn -0.580705 -0.000000 0.814114
vn -0.580706 -0.000003 0.814113
vn -0.580705 0.000000 0.814114
vn -0.309743 -0.948902 0.060364
vn -0.669628 -0.734900 0.107338
vn -0.367539 -0.912025 0.182003
vn -0.264740 -0.929256 0.257676
vn 0.007495 -0.999512 0.030309
vn -0.171317 -0.984290 0.042704
vn -0.963276 0.000000 0.268515
vn -0.978154 0.000000 0.207884
vn -0.963276 0.000000 0.268515
vn -0.978612 0.000000 0.205715
vn -0.362701 0.930880 0.043718
vn -0.093796 0.968059 0.232517
vn -0.289407 0.952668 0.093100
vn 0.023438 0.957566 0.287261
vn -0.999966 0.000000 0.008255
vn -0.999954 0.000000 -0.009583
vn -0.435163 0.899718 -0.033772
vn -0.418672 0.907876 -0.021789
vn 0.066344 -0.997773 0.006869
vn 0.061407 -0.998083 0.007662
vn -0.997721 0.000000 -0.067469
vn -0.991185 0.000000 -0.132484
vn -0.460707 0.886503 0.043153
vn -0.401118 0.914447 -0.053765
vn -0.226918 -0.945625 0.233026
vn -0.074701 -0.984321 0.159787
vn -0.971319 0.000000 -0.237778
vn -0.961362 0.000000 -0.275289
vn -0.485667 -0.781104 0.392435
vn -0.475344 -0.670177 0.570010
vn -0.318767 0.947490 0.025513
vn -0.905001 0.000000 -0.425409
vn -0.893223 0.000000 -0.449615
vn -0.143391 0.984058 0.105210
vn -0.283143 0.958663 -0.028204
vn -0.564139 -0.010030 -0.825619
vn -0.546022 -0.043026 -0.836665
vn -0.252248 -0.791536 -0.556635
vn -0.208080 -0.867876 -0.451102
vn -0.189380 -0.816687 -0.545122
vn -0.239677 0.822847 -0.515245
vn -0.762647 -0.287249 -0.579532
vn -0.762649 -0.287249 -0.579530
vn -0.752804 -0.055624 -0.655890
vn -0.619957 -0.116116 -0.775997
vn -0.658388 -0.155342 -0.736474
vn -0.284555 -0.107176 -0.952650
vn -0.345037 -0.083477 -0.934870
vn -0.449353 -0.040121 -0.892453
vn -0.538940 0.000000 -0.842344
vn -0.327342 -0.789252 -0.519546
vn -0.584726 -0.735509 -0.342231
vn -0.299382 0.952972 -0.047064
vn -0.287900 0.955818 -0.059373
vn -0.762648 -0.287250 -0.579531
vn -0.363802 -0.931382 -0.013281
vn -0.363919 -0.931335 -0.013348
vn -0.363941 -0.931326 -0.013361
vn -0.367620 -0.929848 -0.015473
vn -0.208642 -0.972676 0.101829
vn -0.249692 -0.959444 0.130844
vn -0.222283 -0.968590 0.111457
vn -0.457604 -0.843942 0.279932
vn -0.261008 -0.942448 0.208965
vn -0.260596 -0.942444 0.209496
vn -0.260684 -0.942445 0.209383
vn -0.257815 -0.942408 0.213071
vn -0.420141 -0.906926 0.031112
vn -0.425102 -0.905061 0.012362
vn -0.426250 -0.904571 0.007936
vn -0.491921 -0.681541 -0.541771
vn -0.911306 -0.403253 -0.083111
vn -0.635433 -0.758447 0.144857
vn -0.590497 -0.788861 0.170329
vn -0.585728 -0.791845 0.172928
vn -0.352709 -0.935733 -0.000000
vn -0.353493 -0.935437 -0.000573
vn -0.353233 -0.935535 -0.000383
vn -0.382190 -0.923828 -0.021725
vn -0.520540 -0.851553 -0.062416
vn -0.525891 -0.847745 -0.069044
vn -0.549714 -0.829443 -0.099193
vn -0.761573 -0.441112 -0.474791
vn -0.704993 -0.707193 0.053511
vn -0.702096 -0.710206 0.051654
vn -0.702910 -0.709363 0.052175
vn -0.602128 -0.798359 -0.008066
vn -0.847281 -0.531125 -0.004614
vn -0.732065 -0.671596 0.114188
vn -0.706019 -0.694939 0.136371
vn -0.695723 -0.703563 0.144804
vn -0.452779 -0.891623 0.000000
vn -0.451920 -0.892059 0.000259
vn -0.447301 -0.894382 0.001649
vn -0.429358 -0.903107 0.007011
vn -0.740815 -0.637731 -0.210930
vn -0.615203 -0.787337 -0.040318
vn -0.597853 -0.801350 -0.020232
vn -0.585821 -0.810413 -0.006646
vn -0.678783 -0.732447 0.052670
vn -0.719501 -0.691120 0.068356
vn -0.711523 -0.699629 0.065222
vn -0.720615 -0.689913 0.068797
f 1/1/1 2/2/2 4/3/3
f 4/3/3 2/2/2 3/4/4
f 11/5/5 2/2/6 6/6/7
f 1/1/8 5/7/9 2/2/6
f 2/2/6 5/7/9 6/6/7
f 2/2/2 7/8/10 3/4/4
f 3/4/4 7/8/10 8/9/11
f 12/10/12 9/11/13 3/12/14
f 4/13/15 3/12/14 10/14/16
f 9/11/13 10/14/16 3/12/14
f 9/11/17 6/15/18 10/14/19
f 10/14/19 6/15/18 5/16/20
f 3/17/21 8/18/22 12/19/23
f 12/19/23 8/18/22 13/20/24
f 2/21/25 11/22/26 7/23/27
f 7/23/27 11/22/26 14/24/28
f 7/8/29 14/25/30 8/9/31
f 8/9/31 14/25/30 13/26/32
f 12/10/33 11/27/34 9/11/35
f 9/11/35 11/27/34 6/15/36
f 11/27/34 12/10/33 14/28/37
f 14/28/37 12/10/33 13/29/38
f 15/30/39 16/31/40 18/32/41
f 18/32/41 16/31/40 17/33/42
f 15/34/43 19/35/44 16/36/45
f 16/36/45 19/35/44 21/37/46
f 16/36/45 21/37/46 17/38/47
f 17/38/47 21/37/46 22/39/48
f 22/40/49 23/41/50 17/33/51
f 17/33/51 23/41/50 18/32/52
f 15/42/53 18/43/54 20/44/55
f 20/44/55 18/43/54 23/45/56
f 23/41/50 22/40/49 27/46/57
f 27/46/57 22/40/49 26/47/58
f 20/44/55 23/45/56 25/48/59
f 25/48/59 23/45/56 27/49/60
f 21/37/46 30/50/61 22/39/48
f 22/39/48 30/50/61 26/51/62
f 26/47/58 31/52/63 27/46/57
f 27/46/57 31/52/63 32/53/64
f 25/48/59 27/49/60 29/54/65
f 29/54/65 27/49/60 32/55/66
f 30/50/61 33/56/67 26/51/62
f 26/51/62 33/56/67 31/57/68
f 31/52/63 34/58/69 32/53/64
f 32/53/64 34/58/69 35/59/70
f 34/60/71 31/57/68 28/61/72
f 31/57/68 33/56/67 28/61/72
f 29/54/65 32/55/66 35/62/73
f 35/59/70 34/58/69 39/63/74
f 39/63/74 34/58/69 38/64/75
f 29/54/65 35/62/73 37/65/76
f 37/65/76 35/62/73 39/66/77
f 39/67/74 38/68/75 41/69/78
f 41/69/78 38/68/75 40/70/79
f 36/71/80 40/72/81 38/73/82
f 41/69/83 37/74/76 39/67/77
f 45/75/84 41/69/78 4/76/85
f 4/76/85 41/69/78 1/77/86
f 41/69/78 40/70/79 1/77/86
f 44/78/87 5/79/88 40/70/79
f 40/70/79 5/79/88 1/77/86
f 42/80/89 43/81/90 44/78/91
f 44/78/91 43/81/90 45/75/92
f 42/82/93 44/83/94 36/71/80
f 36/71/80 44/83/94 40/72/81
f 43/84/95 37/85/76 45/86/96
f 45/86/96 37/85/76 41/87/83
f 4/76/85 10/88/97 45/75/84
f 45/75/84 10/88/97 44/78/87
f 10/88/97 5/79/88 44/78/87
f 28/61/98 36/71/99 47/89/100
f 47/89/100 36/71/99 46/90/101
f 36/71/102 38/73/103 46/90/104
f 46/90/104 38/73/103 48/91/105
f 38/73/106 34/60/107 48/91/108
f 48/91/108 34/60/107 49/92/109
f 28/61/110 47/89/111 34/60/112
f 34/60/112 47/89/111 49/92/113
f 51/93/114 30/50/115 50/94/116
f 30/50/115 24/95/117 50/94/116
f 24/95/118 28/61/119 50/94/120
f 28/61/119 53/96/121 50/94/120
f 33/56/122 52/97/123 28/61/124
f 28/61/124 52/97/123 53/96/125
f 30/50/126 51/93/127 33/56/128
f 33/56/128 51/93/127 52/97/129
f 19/35/130 54/98/131 21/37/132
f 21/37/132 54/98/131 55/99/133
f 19/35/134 24/95/135 54/98/136
f 54/98/136 24/95/135 57/100/137
f 30/50/138 56/101/139 24/95/140
f 24/95/140 56/101/139 57/100/141
f 21/37/142 55/99/143 30/50/144
f 30/50/144 55/99/143 56/101/145
f 58/102/146 61/103/147 59/104/148
f 59/104/148 61/103/147 60/105/149
f 64/106/150 63/107/151 59/104/152
f 58/102/153 59/104/152 62/108/154
f 59/104/152 63/107/151 62/108/154
f 66/109/155 65/110/156 60/105/149
f 60/105/149 65/110/156 59/104/148
f 69/111/157 60/112/158 67/113/159
f 61/114/160 68/115/161 60/112/158
f 67/113/159 60/112/158 68/115/161
f 62/116/162 63/117/163 68/115/164
f 68/115/164 63/117/163 67/113/165
f 70/118/166 66/119/167 69/120/168
f 69/120/168 66/119/167 60/121/169
f 59/122/170 65/123/171 64/124/172
f 64/124/172 65/123/171 71/125/173
f 65/110/174 66/109/175 71/126/176
f 71/126/176 66/109/175 70/127/177
f 63/117/178 64/128/179 67/113/180
f 67/113/180 64/128/179 69/111/181
f 64/128/179 71/129/182 69/111/181
f 69/111/181 71/129/182 70/130/183
f 15/131/184 74/132/185 72/133/186
f 72/133/186 74/132/185 73/134/187
f 75/135/188 19/35/189 72/136/190
f 72/136/190 19/35/189 15/34/191
f 76/137/192 75/135/188 73/138/193
f 73/138/193 75/135/188 72/136/190
f 74/132/194 77/139/195 73/134/196
f 73/134/196 77/139/195 76/140/197
f 77/141/198 74/142/199 20/44/200
f 20/44/200 74/142/199 15/42/201
f 77/139/195 79/143/202 76/140/197
f 76/140/197 79/143/202 78/144/203
f 79/145/204 77/141/198 25/48/205
f 25/48/205 77/141/198 20/44/200
f 78/146/206 80/147/207 76/137/192
f 76/137/192 80/147/207 75/135/188
f 82/148/208 81/149/209 79/143/202
f 79/143/202 81/149/209 78/144/203
f 82/150/210 79/145/204 29/54/211
f 29/54/211 79/145/204 25/48/205
f 81/151/212 83/152/213 78/146/206
f 78/146/206 83/152/213 80/147/207
f 85/153/214 84/154/215 82/148/208
f 82/148/208 84/154/215 81/149/209
f 84/155/216 28/61/217 81/151/212
f 81/151/212 28/61/217 83/152/213
f 29/54/211 85/156/218 82/150/210
f 85/153/214 87/157/219 84/154/215
f 84/154/215 87/157/219 86/158/220
f 87/159/221 85/156/218 37/65/222
f 37/65/222 85/156/218 29/54/211
f 87/160/219 89/161/223 86/162/220
f 86/162/220 89/161/223 88/163/224
f 36/71/225 86/164/226 88/165/227
f 89/161/228 87/160/221 37/74/222
f 91/166/229 61/167/230 89/161/223
f 61/167/230 58/168/231 89/161/223
f 89/161/223 58/168/231 88/163/224
f 90/169/232 88/163/224 62/170/233
f 58/168/231 62/170/233 88/163/224
f 91/166/234 43/81/235 90/169/236
f 90/169/236 43/81/235 42/80/237
f 88/165/227 90/171/238 36/71/225
f 36/71/225 90/171/238 42/82/239
f 89/172/228 37/85/222 91/173/240
f 91/173/240 37/85/222 43/84/241
f 61/167/230 91/166/229 68/174/242
f 91/166/229 90/169/232 68/174/242
f 90/169/232 62/170/233 68/174/242
f 28/61/243 93/175/244 36/71/245
f 36/71/245 93/175/244 92/176/246
f 36/177/247 92/178/248 86/179/249
f 86/179/249 92/178/248 94/180/250
f 86/179/251 94/180/252 84/181/253
f 84/181/253 94/180/252 95/182/254
f 28/61/255 84/155/256 93/175/257
f 84/155/256 95/183/258 93/175/257
f 97/184/259 96/185/260 80/147/261
f 80/147/261 96/185/260 24/95/262
f 24/95/263 96/185/264 28/61/265
f 96/185/264 99/186/266 28/61/265
f 83/152/267 28/61/268 98/187/269
f 28/61/268 99/186/270 98/187/269
f 80/147/271 83/152/272 97/184/273
f 83/152/272 98/187/274 97/184/273
f 101/188/275 100/189/276 75/135/277
f 75/135/277 100/189/276 19/35/278
f 19/35/279 100/189/280 24/95/281
f 24/95/281 100/189/280 103/190/282
f 103/190/283 102/191/284 24/95/285
f 24/95/285 102/191/284 80/147/286
f 102/191/287 101/188/288 80/147/289
f 80/147/289 101/188/288 75/135/290
