# This file uses centimeters as units for non-parametric coordinates.

v -0.714145 0.186422 0.809470
v -0.714145 0.219758 0.809470
v -0.773827 0.219758 0.682493
v -0.773827 0.186422 0.682493
v -0.695567 -0.008485 2.331920
v -0.750829 -0.008485 2.331092
v -0.750829 0.028004 2.331092
v -0.689900 0.028004 2.333755
v -0.591433 -0.008436 1.662336
v -0.536171 -0.008436 1.663164
v -0.591433 0.028053 1.662336
v -0.530504 0.028053 1.664999
v -0.103306 0.175726 0.802643
v -0.141190 0.236161 0.802643
v -0.156455 0.234616 0.584445
v -0.106809 0.175726 0.588133
vt 0.692327 0.826078
vt 0.702843 0.832670
vt 0.694188 0.932360
vt 0.699989 0.932360
vt 0.881798 0.601015
vt 0.879142 0.638980
vt 0.782107 0.599827
vt 0.771723 0.621920
vt 0.719224 0.826078
vt 0.717363 0.942135
vt 0.708978 0.834716
vt 0.711563 0.942135
vt 0.642786 0.372094
vt 0.536503 0.373282
vt 0.642176 0.334770
vt 0.526119 0.351189
vt 0.375841 0.896180
vt 0.375841 0.906782
vt 0.369493 0.897166
vt 0.369493 0.906782
vt 0.567470 0.521819
vt 0.557854 0.521675
vt 0.434431 0.538595
vt 0.440780 0.538595
vt 0.468335 0.709082
vt 0.474135 0.709082
vt 0.803458 0.451433
vt 0.814059 0.450970
vt 0.382439 0.424238
vt 0.349084 0.573095
vt 0.376639 0.424238
vt 0.342735 0.572775
vt 0.539736 0.638179
vt 0.530120 0.638035
vt 0.434423 0.422236
vt 0.440771 0.422236
vt 0.775724 0.335074
vt 0.786326 0.334611
vt 0.349075 0.689454
vt 0.342726 0.689135
vn 0.011299 0.007083 0.999911
vn 0.011308 0.006979 0.999912
vn 0.925411 -0.002851 0.378956
vn 0.868621 0.000000 0.495476
vn -0.028675 0.999576 -0.005068
vn -0.027997 0.999602 -0.003385
vn -0.243303 0.963224 0.114034
vn -0.084359 0.995646 0.039651
vn -0.140617 -0.179516 -0.973653
vn -0.936381 -0.009998 -0.350843
vn -0.140851 -0.177282 -0.974029
vn -0.899622 0.000000 -0.436669
vn -0.017505 -0.999847 0.000286
vn 0.215734 -0.970822 -0.104709
vn -0.017248 -0.999851 0.000993
vn 0.048768 -0.998547 -0.022922
vn -0.043631 -0.043415 0.998104
vn -0.026315 -0.017164 0.999506
vn -0.034584 -0.029697 0.998960
vn -0.014985 0.000000 0.999888
vn 0.001905 -0.991880 -0.127166
vn 0.010039 -0.991814 -0.127298
vn -1.000000 0.000000 0.000374
vn -0.999679 0.000000 0.025338
vn -0.012652 0.991861 0.126694
vn -0.005355 0.992452 0.122521
vn 0.987923 -0.149838 -0.039464
vn 0.988085 -0.152373 -0.021707
vn 0.000001 -1.000000 -0.000073
vn 0.000001 -1.000000 -0.000073
vn -0.972751 0.000000 -0.231852
vn -0.972751 0.000000 -0.231852
vn -0.000003 1.000000 0.000073
vn -0.000003 1.000000 0.000073
vn 0.960122 -0.160632 0.228830
vn 0.960122 -0.160632 0.228830
f 13/1/1 14/2/2 1/3/3
f 1/3/3 14/2/2 2/4/4
f 14/5/5 15/6/6 2/7/7
f 2/7/7 15/6/6 3/8/8
f 16/9/9 4/10/10 15/11/11
f 15/11/11 4/10/10 3/12/12
f 13/13/13 1/14/14 16/15/15
f 16/15/15 1/14/14 4/16/16
f 8/17/17 7/18/18 5/19/19
f 5/19/19 7/18/18 6/20/20
f 10/21/21 9/22/22 1/14/14
f 1/14/14 9/22/22 4/16/16
f 9/23/23 11/24/24 4/25/10
f 4/25/10 11/24/24 3/26/12
f 3/8/8 11/27/25 2/7/7
f 2/7/7 11/27/25 12/28/26
f 2/29/4 12/30/27 1/31/3
f 1/31/3 12/30/27 10/32/28
f 10/21/21 5/33/29 9/22/22
f 9/22/22 5/33/29 6/34/30
f 9/23/23 6/35/31 11/24/24
f 11/24/24 6/35/31 7/36/32
f 7/37/33 8/38/34 11/27/25
f 11/27/25 8/38/34 12/28/26
f 8/39/35 5/40/36 12/30/27
f 12/30/27 5/40/36 10/32/28
