# This file uses centimeters as units for non-parametric coordinates.

v -0.516419 0.186422 -0.148642
v -0.516419 0.219758 -0.148642
v -0.478760 0.219758 -0.214780
v -0.478760 0.186422 -0.214780
v -1.383396 -0.008436 0.245075
v -1.389207 -0.008436 0.232943
v -1.389207 0.028053 0.232943
v -1.377729 0.028053 0.246909
v -0.914610 -0.008436 0.098818
v -0.908798 -0.008436 0.110949
v -0.914610 0.028053 0.098818
v -0.903131 0.028053 0.112784
v -0.172448 0.188267 0.085158
v -0.187253 0.221951 0.084059
v -0.186831 0.222247 0.023234
v -0.169107 0.188267 0.026374
vt 0.036217 0.712115
vt 0.042078 0.714691
vt 0.035896 0.771964
vt 0.041696 0.771964
vt 0.165000 0.712770
vt 0.175583 0.712697
vt 0.205488 0.770043
vt 0.216996 0.763491
vt 0.083799 0.496415
vt 0.084120 0.550293
vt 0.077887 0.499499
vt 0.078319 0.550293
vt 0.222619 0.496996
vt 0.181940 0.556845
vt 0.212391 0.496415
vt 0.170432 0.550293
vt 0.008341 0.921827
vt 0.008341 0.923824
vt 0.001992 0.922813
vt 0.001992 0.923824
vt 0.227107 0.625117
vt 0.224996 0.626128
vt 0.118024 0.626128
vt 0.111675 0.626128
vt 0.162432 0.839326
vt 0.160002 0.837329
vt 0.008341 0.839250
vt 0.001992 0.840236
vt 0.250444 0.707694
vt 0.248333 0.708705
vt 0.118024 0.708705
vt 0.111675 0.708705
vt 0.139095 0.921903
vt 0.136665 0.919906
vn -0.548263 -0.214583 0.808308
vn -0.549930 -0.206127 0.809376
vn 0.116882 -0.009525 0.993100
vn -0.059365 0.000000 0.998236
vn -0.010051 0.999938 0.004797
vn -0.009532 0.999947 0.003803
vn -0.334473 0.923302 -0.188787
vn -0.143361 0.986298 -0.081631
vn 0.595615 0.239831 -0.766631
vn -0.173915 0.006970 -0.984736
vn 0.597776 0.230352 -0.767855
vn -0.009655 0.000000 -0.999953
vn 0.005163 -0.999987 0.000294
vn 0.333215 -0.923714 0.188998
vn 0.005037 -0.999987 0.000544
vn 0.138299 -0.987255 0.078749
vn -0.769579 0.087719 0.632498
vn -0.796601 0.072652 0.600124
vn -0.862427 0.030626 0.505254
vn -0.901861 0.000000 0.432026
vn 0.347907 -0.922597 -0.166660
vn 0.385032 -0.917177 -0.102654
vn -0.421444 0.000000 -0.906855
vn -0.456468 0.000000 -0.889740
vn -0.333552 0.925359 0.180148
vn -0.294596 0.924441 0.242121
vn 0.459991 -0.113606 0.880626
vn 0.395060 -0.107239 0.912375
vn 0.000000 -1.000000 -0.000000
vn 0.000000 -1.000000 -0.000000
vn 0.000000 -1.000000 -0.000000
vn 0.000000 -1.000000 0.000000
vn -0.271957 0.000000 -0.962309
vn -0.271957 0.000000 -0.962309
vn 0.000000 1.000000 -0.000001
vn 0.000000 1.000000 -0.000001
vn 0.000000 1.000000 0.000001
vn 0.000000 1.000000 0.000001
vn 0.270847 -0.090262 0.958381
vn 0.270847 -0.090262 0.958381
f 13/1/1 14/2/2 1/3/3
f 1/3/3 14/2/2 2/4/4
f 14/5/5 15/6/6 2/7/7
f 2/7/7 15/6/6 3/8/8
f 16/9/9 4/10/10 15/11/11
f 15/11/11 4/10/10 3/12/12
f 13/13/13 1/14/14 16/15/15
f 16/15/15 1/14/14 4/16/16
f 8/17/17 7/18/18 5/19/19
f 5/19/19 7/18/18 6/20/20
f 10/21/21 9/22/22 1/14/14
f 1/14/14 9/22/22 4/16/16
f 9/23/23 11/24/24 4/10/10
f 4/10/10 11/24/24 3/12/12
f 3/8/8 11/25/25 2/7/7
f 2/7/7 11/25/25 12/26/26
f 2/4/4 12/27/27 1/3/3
f 1/3/3 12/27/27 10/28/28
f 10/21/29 5/29/30 9/22/31
f 9/22/31 5/29/30 6/30/32
f 9/23/23 6/31/33 11/24/24
f 11/24/24 6/31/33 7/32/34
f 7/33/35 8/34/36 11/25/37
f 11/25/37 8/34/36 12/26/38
f 12/27/27 8/17/39 10/28/28
f 10/28/28 8/17/39 5/19/40
