# This file uses centimeters as units for non-parametric coordinates.

v 0.714145 0.186422 0.809470
v 0.714145 0.219758 0.809470
v 0.773827 0.219758 0.682493
v 0.773827 0.186422 0.682493
v 0.591433 -0.008436 1.662336
v 0.536171 -0.008436 1.663164
v 0.591433 0.028053 1.662336
v 0.530504 0.028053 1.664999
v 0.750829 -0.008485 2.331092
v 0.695567 -0.008485 2.331920
v 0.750829 0.028004 2.331092
v 0.689900 0.028004 2.333755
v 0.141190 0.236161 0.802641
v 0.103306 0.175726 0.802641
v 0.156455 0.234616 0.584443
v 0.106809 0.175726 0.588131
vt 0.675677 0.932360
vt 0.677538 0.826078
vt 0.686192 0.925769
vt 0.683338 0.826078
vt 0.887933 0.601015
vt 0.987624 0.599827
vt 0.890589 0.638980
vt 0.998008 0.621920
vt 0.727945 0.826078
vt 0.733745 0.826078
vt 0.725360 0.933497
vt 0.735606 0.942135
vt 0.765587 0.351188
vt 0.755203 0.373282
vt 0.649530 0.334770
vt 0.648921 0.372093
vt 0.381977 0.896180
vt 0.388326 0.896180
vt 0.381977 0.905796
vt 0.388326 0.906782
vt 0.733852 0.521675
vt 0.724237 0.521819
vt 0.519984 0.422236
vt 0.486628 0.592723
vt 0.514183 0.422236
vt 0.480279 0.592723
vt 0.966272 0.451433
vt 0.955671 0.450970
vt 0.428287 0.689454
vt 0.422487 0.689454
vt 0.394932 0.540597
vt 0.388583 0.540916
vt 0.751971 0.638179
vt 0.761586 0.638035
vt 0.480271 0.709082
vt 0.486620 0.709082
vt 0.983405 0.334611
vt 0.994006 0.335074
vt 0.388574 0.424557
vt 0.394923 0.424238
vn -0.011303 0.007085 0.999911
vn -0.925411 -0.002851 0.378955
vn -0.011312 0.006981 0.999912
vn -0.868622 0.000000 0.495475
vn 0.028675 0.999576 -0.005068
vn 0.243303 0.963224 0.114034
vn 0.027997 0.999602 -0.003385
vn 0.084359 0.995646 0.039651
vn 0.899623 0.000000 -0.436668
vn 0.936381 -0.009998 -0.350842
vn 0.140853 -0.177285 -0.974028
vn 0.140619 -0.179518 -0.973653
vn -0.048767 -0.998547 -0.022922
vn -0.215734 -0.970822 -0.104709
vn 0.017248 -0.999851 0.000993
vn 0.017505 -0.999847 0.000286
vn 0.014985 0.000000 0.999888
vn 0.026315 -0.017164 0.999506
vn 0.034584 -0.029697 0.998960
vn 0.043631 -0.043415 0.998104
vn -0.010039 -0.991814 -0.127298
vn -0.001905 -0.991880 -0.127166
vn 0.999679 0.000000 0.025338
vn 1.000000 0.000000 0.000374
vn 0.012652 0.991861 0.126694
vn 0.005355 0.992452 0.122521
vn -0.987923 -0.149838 -0.039464
vn -0.988085 -0.152374 -0.021708
vn -0.000001 -1.000000 -0.000073
vn -0.000001 -1.000000 -0.000073
vn 0.972751 0.000000 -0.231853
vn 0.972751 0.000000 -0.231853
vn 0.000003 1.000000 0.000073
vn 0.000003 1.000000 0.000073
vn -0.960122 -0.160632 0.228830
vn -0.960122 -0.160632 0.228830
f 14/1/1 1/2/2 13/3/3
f 13/3/3 1/2/2 2/4/4
f 13/5/5 2/6/6 15/7/7
f 15/7/7 2/6/6 3/8/8
f 3/9/9 4/10/10 15/11/11
f 15/11/11 4/10/10 16/12/12
f 4/13/13 1/14/14 16/15/15
f 16/15/15 1/14/14 14/16/16
f 9/17/17 11/18/18 10/19/19
f 10/19/19 11/18/18 12/20/20
f 4/13/13 5/21/21 1/14/14
f 1/14/14 5/21/21 6/22/22
f 3/23/9 7/24/23 4/25/10
f 4/25/10 7/24/23 5/26/24
f 3/8/8 2/6/6 7/27/25
f 7/27/25 2/6/6 8/28/26
f 2/29/4 1/30/2 8/31/27
f 8/31/27 1/30/2 6/32/28
f 6/22/22 5/21/21 10/33/29
f 10/33/29 5/21/21 9/34/30
f 5/26/24 7/24/23 9/35/31
f 9/35/31 7/24/23 11/36/32
f 8/28/26 12/37/33 7/27/25
f 7/27/25 12/37/33 11/38/34
f 6/32/28 10/39/35 8/31/27
f 8/31/27 10/39/35 12/40/36
