# This file uses centimeters as units for non-parametric coordinates.

v 0.487490 0.186422 -0.630032
v 0.487490 0.219758 -0.630032
v 0.464842 0.219758 -0.666148
v 0.464842 0.186422 -0.666148
v 0.581024 -0.008436 -0.810109
v 0.609739 -0.008436 -0.778462
v 0.581024 0.028053 -0.810109
v 0.604072 0.028053 -0.776627
v 0.752292 -0.008436 -1.113439
v 0.781007 -0.008436 -1.081792
v 0.752292 0.028053 -1.113439
v 0.775340 0.028053 -1.079957
v 0.191934 0.227078 -0.418448
v 0.147228 0.183914 -0.404741
v 0.200491 0.214486 -0.484496
v 0.143886 0.183914 -0.484134
vt 0.834725 0.766280
vt 0.835161 0.727081
vt 0.842235 0.763895
vt 0.840962 0.727081
vt 0.849386 0.770272
vt 0.900811 0.807086
vt 0.850874 0.781764
vt 0.896870 0.813370
vt 0.536748 0.916395
vt 0.542548 0.916395
vt 0.537665 0.962391
vt 0.542984 0.972240
vt 0.905825 0.720797
vt 0.909766 0.727081
vt 0.849981 0.752466
vt 0.850562 0.766280
vt 0.801257 0.648478
vt 0.801257 0.642972
vt 0.807606 0.648797
vt 0.807606 0.642972
vt 0.931037 0.701255
vt 0.926040 0.695749
vt 0.570103 0.896180
vt 0.576452 0.896180
vt 0.921095 0.832592
vt 0.917085 0.838418
vt 0.807606 0.701575
vt 0.801257 0.701256
vt 0.960836 0.648478
vt 0.955840 0.642971
vt 0.394461 0.896180
vt 0.400810 0.896180
vt 0.394461 0.948958
vt 0.400810 0.948958
vt 0.950895 0.885370
vt 0.946885 0.891196
vn 0.528974 -0.295216 0.795635
vn 0.673260 -0.017793 0.739192
vn 0.530984 -0.287787 0.797016
vn 0.626148 0.000000 0.779704
vn -0.119725 0.972273 -0.200875
vn 0.248575 0.952020 -0.178517
vn -0.115186 0.974643 -0.191839
vn 0.324575 0.923342 -0.205160
vn -0.617760 0.000000 -0.786367
vn -0.667681 0.040960 -0.743320
vn -0.377302 0.658809 -0.650857
vn -0.368271 0.674272 -0.640104
vn -0.294238 -0.936437 0.191075
vn -0.236834 -0.960047 0.149063
vn 0.007125 -0.999975 -0.000410
vn 0.007171 -0.999974 -0.000302
vn 0.732506 0.147192 -0.664657
vn 0.783416 0.071635 -0.617355
vn 0.775913 0.083637 -0.625271
vn 0.823707 0.000000 -0.567016
vn -0.547799 -0.684555 0.480938
vn -0.540138 -0.684142 0.490103
vn -0.832432 0.000000 -0.554128
vn -0.853754 0.000000 -0.520677
vn 0.606422 0.678940 -0.413875
vn 0.604682 0.679043 -0.416246
vn 0.848954 0.104212 0.518090
vn 0.860161 0.108532 0.498341
vn 0.000000 -1.000000 0.000000
vn 0.000000 -1.000000 0.000000
vn 0.000000 -1.000000 0.000000
vn 0.000000 -1.000000 0.000000
vn -0.870783 0.000000 -0.491667
vn -0.870783 0.000000 -0.491667
vn 0.000000 1.000000 -0.000000
vn 0.000000 1.000000 0.000000
vn 0.000000 1.000000 -0.000000
vn 0.000000 1.000000 0.000000
vn 0.865514 0.109850 0.488691
vn 0.865514 0.109850 0.488691
f 14/1/1 1/2/2 13/3/3
f 13/3/3 1/2/2 2/4/4
f 13/5/5 2/6/6 15/7/7
f 15/7/7 2/6/6 3/8/8
f 3/9/9 4/10/10 15/11/11
f 15/11/11 4/10/10 16/12/12
f 4/13/13 1/14/14 16/15/15
f 16/15/15 1/14/14 14/16/16
f 10/17/17 9/18/18 12/19/19
f 12/19/19 9/18/18 11/20/20
f 1/14/14 4/13/13 6/21/21
f 6/21/21 4/13/13 5/22/22
f 3/9/9 7/23/23 4/10/10
f 4/10/10 7/23/23 5/24/24
f 2/6/6 8/25/25 3/8/8
f 3/8/8 8/25/25 7/26/26
f 2/4/4 1/2/2 8/27/27
f 8/27/27 1/2/2 6/28/28
f 6/21/29 5/22/30 10/29/31
f 10/29/31 5/22/30 9/30/32
f 5/31/24 7/32/23 9/33/33
f 9/33/33 7/32/23 11/34/34
f 8/25/35 12/35/36 7/26/37
f 7/26/37 12/35/36 11/36/38
f 8/27/27 6/28/28 12/19/39
f 12/19/39 6/28/28 10/17/40
