# This file uses centimeters as units for non-parametric coordinates.

v -0.453630 -2.372115 0.818299
v -0.424217 0.432661 -1.357430
v 0.173359 -2.834460 0.388479
v 0.338841 0.311343 -1.821499
v 0.957173 -1.201573 2.894690
v 0.198542 2.013845 1.628841
v -0.735301 -1.079883 3.004981
v -1.199921 2.028886 1.647169
v 0.260460 -1.465545 -1.138272
v 0.986695 0.505948 2.602488
v -1.210415 0.525513 2.597043
v -0.377444 -1.146640 -0.485254
v 0.308636 -0.621532 -1.565023
v 0.677067 1.383884 2.125657
v -1.193428 1.393155 2.139177
v -0.348967 -0.381214 -0.953335
v 0.072138 -2.316229 -0.329802
v 1.053190 -0.310198 2.768766
v -1.054708 -0.263659 2.786503
v -0.449941 -1.883597 0.168759
v 0.188423 1.013562 -0.108880
v 0.690731 0.253910 0.060000
v 0.736915 -0.664188 0.544902
v 0.819777 -1.567731 0.914433
v 0.978669 -2.455954 1.219420
v -0.208158 -2.006525 1.646996
v -0.622040 -1.376268 1.079337
v -0.582512 -0.583729 0.636694
v -0.615280 0.290290 0.110148
v -0.859481 0.965882 0.072653
v -1.107680 -0.443149 -1.508036
v -1.333100 -0.694079 -2.050733
v -1.258731 0.197348 -1.741485
v -1.482932 -0.053645 -2.284945
v -1.024672 -1.864621 -0.208172
v -1.594030 -2.050099 -0.499444
v -1.109357 -1.298380 -0.542011
v -1.617181 -1.472469 -0.817729
v -1.117446 -1.243237 -0.817175
v -1.860366 -1.335820 -0.799538
v -1.212368 -0.552940 -1.191914
v -1.955288 -0.645524 -1.174276
v -0.889007 -2.475638 0.609468
v -0.787812 -1.981779 0.258880
v -1.474054 -1.961154 0.100754
v -1.567872 -2.433846 0.472388
v -0.990798 0.889834 -0.258164
v -0.124555 0.892805 -0.446252
v -1.038244 2.135034 -0.004908
v -0.214749 2.137858 -0.183715
v -0.929133 -1.986895 1.019898
v -0.825729 -1.595029 0.663433
v -1.153902 -1.267591 0.928192
v -1.257306 -1.659457 1.284656
v -1.127888 -0.908926 -0.363067
v -1.507101 -0.754126 0.117682
v -1.215601 -0.298807 -0.628712
v -1.594814 -0.144006 -0.147964
v -1.089109 -0.211605 -0.887070
v -1.459862 -0.244222 -0.717714
v -1.215255 0.386369 -1.041775
v -1.580493 0.354743 -0.873009
v -1.002686 -1.578841 0.312602
v -1.405715 -1.417145 0.605654
v -1.003401 -1.066431 0.033531
v -1.420277 -0.918977 0.310754
v -0.321941 -1.705298 1.324069
v -0.299320 -1.392868 0.965715
v -0.526579 -1.166119 1.149060
v -0.549201 -1.478549 1.507414
v -0.617395 -0.561119 0.035061
v -0.894928 -0.447825 0.386905
v -0.682196 -0.045155 -0.182193
v -0.959729 0.068139 0.169651
v -0.755698 0.008952 -0.467394
v -1.075537 -0.007580 -0.282712
v -0.857769 0.529808 -0.597537
v -1.177607 0.513275 -0.412855
v -0.459695 -1.302480 0.691383
v -0.842654 -1.148835 0.969841
v -0.465232 -0.878456 0.431186
v -0.836719 -0.729414 0.701303
v -1.250165 0.580974 -0.738245
v -0.545536 0.434440 -0.804079
v -1.164721 1.187446 -1.173626
v -0.460092 1.040912 -1.239459
v -1.414644 0.276496 -1.756774
v -0.750093 0.138297 -1.818863
v -1.349894 0.674186 -1.948929
v -0.685343 0.535987 -2.011018
v 1.440149 -0.254556 4.401704
v 1.587157 0.254162 4.163347
v -0.526455 0.308442 4.187446
v -0.431687 -0.204604 4.424941
v 1.486108 1.036972 3.909145
v -0.664406 1.044571 3.901892
v 1.178779 1.814348 3.587488
v -0.556408 1.969092 3.552226
v 0.665918 2.269201 3.127403
v -0.262695 2.336028 3.094734
vt 0.430142 0.843989
vt 0.493877 0.837823
vt 0.498825 0.934344
vt 0.432030 0.969587
vt 0.319658 0.884112
vt 0.368378 0.869642
vt 0.375844 0.968086
vt 0.316880 0.969490
vt 0.537326 0.851839
vt 0.610034 0.870570
vt 0.589676 0.931149
vt 0.559713 0.941075
vt 0.185548 0.892599
vt 0.253153 0.880444
vt 0.262110 0.972388
vt 0.206805 0.974573
vt 0.039588 0.898427
vt 0.014587 0.995648
vt 0.133004 0.881621
vt 0.130392 0.986561
vt 0.709367 0.874886
vt 0.737882 0.865582
vt 0.034412 0.084574
vt 0.007226 0.084574
vt 0.042122 0.118636
vt 0.012885 0.118636
vt 0.047912 0.161559
vt 0.016797 0.161559
vt 0.075389 0.205704
vt 0.033773 0.223663
vt 0.941051 0.682020
vt 0.908148 0.645914
vt 0.941051 0.805722
vt 0.856769 0.625735
vt 0.083394 0.276095
vt 0.037417 0.287906
vt 0.138676 0.183128
vt 0.136192 0.274026
vt 0.094480 0.400008
vt 0.046757 0.368684
vt 0.094917 0.122652
vt 0.133268 0.122652
vt 0.191837 0.183128
vt 0.196179 0.270923
vt 0.139937 0.405392
vt 0.095219 0.070046
vt 0.128866 0.070718
vt 0.143148 0.098368
vt 0.189115 0.097303
vt 0.246670 0.191864
vt 0.252718 0.283335
vt 0.188444 0.410286
vt 0.097851 0.029030
vt 0.126751 0.029702
vt 0.144903 0.048350
vt 0.183701 0.044318
vt 0.218972 0.112664
vt 0.259289 0.117368
vt 0.240034 0.399029
vt 0.145861 0.005918
vt 0.178364 0.001886
vt 0.230492 0.058074
vt 0.266884 0.062309
vt 0.274395 0.265229
vt 0.298812 0.334754
vt 0.237155 0.023013
vt 0.268735 0.026373
vt 0.287826 0.232140
vt 0.327036 0.251365
vt 0.331050 0.186977
vt 0.352015 0.202258
vt 0.362124 0.124266
vt 0.408101 0.136077
vt 0.403193 0.208883
vt 0.361577 0.183347
vt 0.371465 0.043488
vt 0.419187 0.012164
vt 0.460900 0.138146
vt 0.463384 0.229044
vt 0.378811 0.249691
vt 0.347696 0.232219
vt 0.464645 0.006780
vt 0.520887 0.141249
vt 0.516545 0.229044
vt 0.457976 0.289520
vt 0.419625 0.289520
vt 0.361738 0.292547
vt 0.332500 0.281187
vt 0.513152 0.001886
vt 0.577426 0.128837
vt 0.571378 0.220308
vt 0.513823 0.314869
vt 0.467856 0.313804
vt 0.453574 0.341454
vt 0.419927 0.342126
vt 0.350950 0.328013
vt 0.323764 0.322910
vt 0.564741 0.013143
vt 0.583997 0.294804
vt 0.543680 0.299508
vt 0.508409 0.367853
vt 0.469611 0.363821
vt 0.451459 0.382470
vt 0.422559 0.383142
vt 0.623520 0.077418
vt 0.599103 0.146942
vt 0.591592 0.349863
vt 0.555200 0.354097
vt 0.503072 0.410286
vt 0.470569 0.406254
vt 0.651744 0.160806
vt 0.612533 0.180032
vt 0.593443 0.385798
vt 0.561862 0.389158
vt 0.676723 0.209914
vt 0.655758 0.225195
vt 0.572155 0.505748
vt 0.512120 0.414278
vt 0.674480 0.414278
vt 0.712451 0.505748
vt 0.671510 0.580244
vt 0.569466 0.580244
vt 0.629583 0.635303
vt 0.563107 0.635303
vt 0.609551 0.671239
vt 0.550665 0.671239
vt 0.799364 0.418926
vt 0.858445 0.436188
vt 0.858445 0.576123
vt 0.799364 0.609313
vt 0.907317 0.408669
vt 0.907317 0.519182
vt 0.718586 0.362524
vt 0.718586 0.678632
vt 0.956285 0.391225
vt 0.967569 0.476259
vt 0.998008 0.383311
vt 1.012369 0.442197
vt 0.777500 0.357915
vt 0.777500 0.001886
vt 0.826007 0.051860
vt 0.826007 0.357045
vt 0.732043 0.334263
vt 0.732043 0.001886
vt 0.877597 0.133627
vt 0.877597 0.358533
vt 0.684320 0.001886
vt 0.684320 0.317993
vt 0.802175 0.931750
vt 0.802175 0.858126
vt 0.834679 0.858126
vt 0.834679 0.931750
vt 0.764459 0.917012
vt 0.764459 0.858126
vt 0.796040 0.858126
vt 0.796040 0.917012
vt 0.840814 0.903434
vt 0.840814 0.824145
vt 0.869713 0.822486
vt 0.869713 0.899400
vt 0.658984 0.854134
vt 0.658984 0.704114
vt 0.729448 0.701425
vt 0.729448 0.803468
vt 0.784038 0.695066
vt 0.784038 0.761542
vt 0.819099 0.682623
vt 0.819099 0.741509
vt 0.374437 0.859269
vt 0.374437 0.735567
vt 0.455074 0.699045
vt 0.455074 0.812354
vt 0.507679 0.694431
vt 0.507679 0.777876
vt 0.548695 0.675230
vt 0.548695 0.754520
vt 0.287797 0.476273
vt 0.287797 0.626294
vt 0.227321 0.553060
vt 0.227321 0.449507
vt 0.175387 0.518582
vt 0.175387 0.435137
vt 0.134371 0.491192
vt 0.134371 0.414278
vt 0.001992 0.815254
vt 0.001992 0.665233
vt 0.086752 0.649506
vt 0.086752 0.768787
vt 0.136770 0.630285
vt 0.136770 0.730882
vt 0.179202 0.643312
vt 0.179202 0.716936
vt 0.366631 0.678123
vt 0.366631 0.828144
vt 0.280806 0.781677
vt 0.280806 0.662396
vt 0.227821 0.743773
vt 0.227821 0.643175
vt 0.185388 0.729826
vt 0.185388 0.656202
vt 0.868053 0.710769
vt 0.908148 0.756427
vt 0.868053 0.710769
vt 0.856769 0.625735
vt 0.835665 0.676707
vt 0.821304 0.617821
vt 0.573795 0.827453
vt 0.573795 0.686262
vt 0.606884 0.676162
vt 0.606884 0.791275
vt 0.555689 0.854649
vt 0.555689 0.692289
vt 0.652047 0.675230
vt 0.652047 0.783796
vt 0.441709 0.452990
vt 0.441709 0.587214
vt 0.358321 0.573284
vt 0.358321 0.458170
vt 0.505985 0.414278
vt 0.505985 0.639184
vt 0.309213 0.565805
vt 0.309213 0.457239
vt 0.293933 0.565805
vt 0.293933 0.457239
vt 0.732368 0.911840
vt 0.759554 0.911840
vt 0.672929 0.866249
vt 0.652934 0.921770
vn 0.469245 -0.867315 0.166052
vn 0.706453 0.494914 -0.505948
vn 0.034933 0.466030 0.884079
vn 0.020885 0.991817 0.125946
vn 0.086884 -0.971487 -0.220600
vn 0.349577 -0.702326 -0.620108
vn 0.613260 -0.777037 0.141863
vn 0.977141 -0.048846 -0.206903
vn 0.427776 -0.685267 0.589421
vn 0.762055 0.262071 0.592107
vn -0.359326 -0.540879 0.760483
vn -0.490925 0.227142 0.841070
vn -0.953242 -0.296037 -0.060762
vn -0.885040 -0.286451 0.366947
vn -0.360179 -0.788112 0.499150
vn -0.436847 -0.641231 0.630862
vn -0.988604 -0.067596 -0.134507
vn 0.736470 0.578745 -0.350237
vn -0.597521 0.757607 -0.262679
vn 0.726250 0.360983 -0.585023
vn 0.536432 -0.463300 -0.705403
vn 0.650850 -0.354052 -0.671596
vn 0.984432 -0.022512 -0.174320
vn 0.971769 0.168477 -0.165167
vn 0.695575 0.417055 0.585013
vn 0.615161 0.618526 0.488879
vn -0.520796 0.320619 0.791185
vn -0.494374 0.548601 0.674264
vn -0.963756 0.143138 0.225134
vn -0.976543 -0.108196 -0.186168
vn -0.983046 0.020247 0.182240
vn -0.964607 -0.191677 -0.181090
vn 0.804314 -0.560708 -0.196688
vn 0.575887 0.770535 -0.273185
vn -0.021205 0.089272 0.995782
vn -0.060948 0.893219 0.445472
vn 0.342951 0.936673 0.070914
vn -0.140913 0.988778 0.049620
vn -0.406162 -0.244515 0.880480
vn 0.969819 -0.188313 -0.154885
vn -0.267000 0.715886 0.645150
vn 0.695084 0.717230 -0.049390
vn 0.685648 -0.725339 -0.061406
vn 0.664443 0.716170 -0.213582
vn -0.157932 0.168074 0.973041
vn -0.093763 0.956174 0.277380
vn 0.896888 0.328801 -0.295774
vn 0.533677 0.819320 -0.209531
vn 0.967138 0.111798 -0.228355
vn 0.981779 -0.044821 -0.184666
vn 0.497056 -0.754057 0.429340
vn -0.458756 -0.782835 0.420371
vn -0.976150 -0.207253 0.064640
vn -0.996701 -0.080477 0.010551
vn -0.997078 0.031213 0.069722
vn -0.668832 0.743404 -0.003839
vn 0.224745 -0.972361 -0.063269
vn -0.496220 -0.866939 -0.046719
vn 0.764561 0.033124 -0.643700
vn -0.666731 0.598325 -0.444384
vn -0.035277 -0.818150 0.573922
vn -0.214408 -0.787669 -0.577586
vn -0.111557 0.993742 0.005689
vn -0.357354 -0.116799 -0.926637
vn -0.277817 -0.842450 -0.461622
vn -0.110909 -0.473514 0.873776
vn 0.058328 0.986453 -0.153323
vn -0.754344 0.025302 -0.655992
vn 0.018690 -0.554150 0.832207
vn -0.326389 -0.636045 -0.699226
vn 0.070499 0.997175 0.025924
vn -0.717880 -0.225863 -0.658509
vn 0.356300 0.904181 -0.235600
vn -0.131300 -0.654097 0.744928
vn -0.792877 0.268274 -0.547152
vn -0.468841 -0.802178 -0.369727
vn 0.862769 -0.476636 -0.168662
vn -0.799150 -0.362279 0.479702
vn -0.581451 0.788003 -0.202401
vn 0.479271 0.825332 -0.298541
vn 0.387380 -0.703213 0.596178
vn 0.477578 0.374935 -0.794571
vn -0.428231 0.902862 -0.038198
vn -0.844105 0.085944 0.529245
vn 0.717501 -0.652154 0.244720
vn -0.709929 -0.356254 0.607523
vn 0.316815 0.708626 -0.630458
vn -0.644428 0.719218 0.259688
vn -0.881420 -0.441127 0.168837
vn 0.923534 -0.383325 -0.012115
vn 0.572720 0.672246 -0.469125
vn -0.938364 0.292955 0.183438
vn -0.853545 -0.268990 0.446213
vn 0.749158 -0.648997 0.132536
vn 0.571783 0.469561 -0.672738
vn -0.668813 0.730939 0.135709
vn 0.465148 -0.855724 0.226658
vn -0.749727 -0.513048 0.417960
vn -0.712049 0.578755 -0.397529
vn 0.667962 0.433551 -0.604864
f 67/21/1 68/22/2 70/225/3
f 70/225/3 68/22/2 69/226/4
f 3/30/5 17/29/6 25/36/7
f 25/36/7 17/29/6 24/35/8
f 91/147/9 92/144/10 94/148/11
f 94/148/11 92/144/10 93/143/12
f 27/73/13 20/74/14 26/72/15
f 26/72/15 20/74/14 1/75/16
f 30/118/17 21/119/18 2/117/19
f 2/117/19 21/119/18 4/120/20
f 26/127/15 1/128/16 25/130/7
f 25/130/7 1/128/16 3/129/5
f 9/37/21 13/43/22 23/38/23
f 23/38/23 13/43/22 22/44/24
f 95/140/25 97/141/26 96/139/27
f 96/139/27 97/141/26 98/142/28
f 12/79/29 28/78/30 16/84/31
f 16/84/31 28/78/30 29/83/32
f 71/150/33 73/151/34 72/149/35
f 72/149/35 73/151/34 74/152/36
f 13/43/22 4/50/20 22/44/24
f 22/44/24 4/50/20 21/51/18
f 97/141/26 99/145/37 98/142/28
f 98/142/28 99/145/37 100/146/38
f 16/84/31 29/83/32 2/91/19
f 2/91/19 29/83/32 30/90/17
f 76/153/39 75/154/40 78/156/41
f 78/156/41 75/154/40 77/155/42
f 17/29/6 9/37/21 24/35/8
f 24/35/8 9/37/21 23/38/23
f 92/144/10 95/140/25 93/143/12
f 93/143/12 95/140/25 96/139/27
f 20/74/14 27/73/13 12/79/29
f 12/79/29 27/73/13 28/78/30
f 79/158/43 81/159/44 80/157/45
f 80/157/45 81/159/44 82/160/46
f 22/44/24 21/51/18 14/52/47
f 14/52/47 21/51/18 6/59/48
f 23/38/23 22/44/24 10/45/49
f 10/45/49 22/44/24 14/52/47
f 24/35/8 23/38/23 18/39/50
f 18/39/50 23/38/23 10/45/49
f 25/36/7 24/35/8 5/40/51
f 5/40/51 24/35/8 18/39/50
f 7/133/52 26/127/15 5/134/51
f 5/134/51 26/127/15 25/130/7
f 19/77/53 27/73/13 7/76/52
f 7/76/52 27/73/13 26/72/15
f 27/73/13 19/77/53 28/78/30
f 28/78/30 19/77/53 11/82/54
f 28/78/30 11/82/54 29/83/32
f 29/83/32 11/82/54 15/89/55
f 29/83/32 15/89/55 30/90/17
f 30/90/17 15/89/55 8/98/56
f 88/223/57 87/224/58 90/221/59
f 90/221/59 87/224/58 89/222/60
f 16/162/31 31/163/61 13/161/22
f 13/161/22 31/163/61 32/164/62
f 2/91/19 33/99/63 16/84/31
f 16/84/31 33/99/63 31/100/61
f 2/117/19 4/120/20 33/122/63
f 33/122/63 4/120/20 34/121/64
f 4/50/20 13/43/22 34/58/64
f 34/58/64 13/43/22 32/57/62
f 17/169/6 20/170/14 36/172/65
f 36/172/65 20/170/14 35/171/66
f 12/79/29 37/85/67 20/74/14
f 20/74/14 37/85/67 35/86/66
f 12/177/29 9/178/21 37/180/67
f 37/180/67 9/178/21 38/179/68
f 17/29/6 36/41/65 9/37/21
f 9/37/21 36/41/65 38/42/68
f 12/186/29 39/187/69 9/185/21
f 9/185/21 39/187/69 40/188/70
f 16/84/31 41/92/71 12/79/29
f 12/79/29 41/92/71 39/93/69
f 16/193/31 13/194/22 41/196/71
f 41/196/71 13/194/22 42/195/72
f 9/37/21 40/48/70 13/43/22
f 13/43/22 40/48/70 42/49/72
f 20/74/14 44/80/73 1/75/16
f 1/75/16 44/80/73 43/81/74
f 45/202/75 44/32/73 17/33/6
f 20/31/14 17/33/6 44/32/73
f 3/30/5 46/28/76 17/29/6
f 17/29/6 46/28/76 45/27/75
f 46/132/76 3/129/5 43/131/74
f 3/129/5 1/128/16 43/131/74
f 21/211/18 30/212/17 48/207/77
f 48/207/77 30/212/17 47/208/78
f 8/98/56 49/105/79 30/90/17
f 30/90/17 49/105/79 47/106/78
f 8/219/56 6/220/48 49/215/79
f 49/215/79 6/220/48 50/216/80
f 6/59/48 21/51/18 50/65/80
f 50/65/80 21/51/18 48/64/77
f 43/81/74 44/80/73 51/88/81
f 51/88/81 44/80/73 52/87/82
f 44/32/73 45/202/75 52/34/82
f 52/34/82 45/202/75 53/203/83
f 46/28/76 54/26/84 45/27/75
f 45/27/75 54/26/84 53/25/83
f 43/131/74 51/135/81 46/132/76
f 46/132/76 51/135/81 54/136/84
f 39/187/69 55/189/85 40/188/70
f 40/188/70 55/189/85 56/190/86
f 39/93/69 41/92/71 55/102/85
f 55/102/85 41/92/71 57/101/87
f 41/196/71 42/195/72 57/198/87
f 57/198/87 42/195/72 58/197/88
f 40/48/70 56/55/86 42/49/72
f 42/49/72 56/55/86 58/56/88
f 32/164/62 31/163/61 60/166/89
f 60/166/89 31/163/61 59/165/90
f 31/100/61 33/99/63 59/108/90
f 59/108/90 33/99/63 61/107/91
f 34/121/64 62/123/92 33/122/63
f 33/122/63 62/123/92 61/124/91
f 32/57/62 60/62/89 34/58/64
f 34/58/64 60/62/89 62/63/92
f 36/172/65 35/171/66 64/174/93
f 64/174/93 35/171/66 63/173/94
f 35/86/66 37/85/67 63/95/94
f 63/95/94 37/85/67 65/94/95
f 38/179/68 66/181/96 37/180/67
f 37/180/67 66/181/96 65/182/95
f 36/41/65 64/46/93 38/42/68
f 38/42/68 64/46/93 66/47/96
f 51/88/81 52/87/82 67/97/1
f 67/97/1 52/87/82 68/96/2
f 52/204/82 53/201/83 68/206/2
f 68/206/2 53/201/83 69/205/4
f 54/26/84 70/24/3 53/25/83
f 53/25/83 70/24/3 69/23/4
f 51/135/81 67/137/1 54/136/84
f 54/136/84 67/137/1 70/138/3
f 55/189/85 71/191/33 56/190/86
f 56/190/86 71/191/33 72/192/35
f 55/102/85 57/101/87 71/110/33
f 71/110/33 57/101/87 73/109/34
f 57/198/87 58/197/88 73/200/34
f 73/200/34 58/197/88 74/199/36
f 56/55/86 72/60/35 58/56/88
f 58/56/88 72/60/35 74/61/36
f 60/166/89 59/165/90 76/168/39
f 76/168/39 59/165/90 75/167/40
f 59/108/90 61/107/91 75/114/40
f 75/114/40 61/107/91 77/113/42
f 62/123/92 78/125/41 61/124/91
f 61/124/91 78/125/41 77/126/42
f 60/62/89 76/66/39 62/63/92
f 62/63/92 76/66/39 78/67/41
f 63/173/94 79/175/43 64/174/93
f 64/174/93 79/175/43 80/176/45
f 63/95/94 65/94/95 79/104/43
f 79/104/43 65/94/95 81/103/44
f 65/182/95 66/181/96 81/184/44
f 81/184/44 66/181/96 82/183/46
f 64/46/93 80/53/45 66/47/96
f 66/47/96 80/53/45 82/54/46
f 48/207/77 47/208/78 84/210/97
f 84/210/97 47/208/78 83/209/98
f 49/105/79 85/111/99 47/106/78
f 47/106/78 85/111/99 83/112/98
f 49/215/79 50/216/80 85/218/99
f 85/218/99 50/216/80 86/217/100
f 50/65/80 48/64/77 86/69/100
f 86/69/100 48/64/77 84/68/97
f 83/209/98 87/213/58 84/210/97
f 84/210/97 87/213/58 88/214/57
f 85/111/99 89/115/60 83/112/98
f 83/112/98 89/115/60 87/116/58
f 85/218/99 86/217/100 89/222/60
f 89/222/60 86/217/100 90/221/59
f 86/69/100 84/68/97 90/71/59
f 90/71/59 84/68/97 88/70/57
f 5/1/51 18/2/50 91/4/9
f 91/4/9 18/2/50 92/3/10
f 7/6/52 94/7/11 19/5/53
f 19/5/53 94/7/11 93/8/12
f 7/6/52 5/1/51 94/7/11
f 94/7/11 5/1/51 91/4/9
f 10/9/49 14/10/47 95/12/25
f 95/12/25 14/10/47 97/11/26
f 11/14/54 96/15/27 15/13/55
f 15/13/55 96/15/27 98/16/28
f 14/10/47 6/227/48 97/11/26
f 97/11/26 6/227/48 99/228/37
f 8/19/56 100/20/38 6/17/48
f 6/17/48 100/20/38 99/18/37
f 15/13/55 98/16/28 8/19/56
f 8/19/56 98/16/28 100/20/38
f 18/2/50 10/9/49 92/3/10
f 92/3/10 10/9/49 95/12/25
f 19/5/53 93/8/12 11/14/54
f 11/14/54 93/8/12 96/15/27
